<svg width="20" height="20" viewBox="0 0 20 20" fill="none" xmlns="http://www.w3.org/2000/svg">
<g clip-path="url(#clip0_10279_67397)">
<path d="M4.79199 3.7526V5.83594H6.87533V3.7526L16.2503 3.7526V16.2526H6.87533V14.1693H4.79199V16.2526C4.79199 17.401 5.72624 18.3359 6.87533 18.3359H16.2503C17.3988 18.3359 18.3337 17.401 18.3337 16.2526V3.7526C18.3337 2.60417 17.3988 1.66927 16.2503 1.66927H6.87533C5.72624 1.66927 4.79199 2.60351 4.79199 3.7526ZM13.835 10.7708C14.2666 10.3763 14.2666 9.62956 13.835 9.2347L10.707 6.39941C10.2822 6.01074 9.62272 6.03939 9.2334 6.46351C8.82422 6.9098 8.89583 7.56702 9.29749 7.93551L10.4495 8.96094H2.70964C2.13346 8.96094 1.66699 9.42643 1.66699 10.0026C1.66699 10.5788 2.13346 11.0443 2.70964 11.0443H10.4505L9.2972 12.099C8.87402 12.4896 8.84473 13.1471 9.2321 13.5703C9.62272 13.9967 10.2803 14.0228 10.7067 13.6354L13.835 10.7708Z" fill="#1B98FF"/>
</g>
<defs>
<clipPath id="clip0_10279_67397">
<rect width="16.6667" height="16.6667" fill="white" transform="matrix(0 -1 1 0 1.66675 18.334)"/>
</clipPath>
</defs>
</svg>
