<svg width="265" height="56" viewBox="0 0 265 56" fill="none" xmlns="http://www.w3.org/2000/svg">
<path d="M40 28.0496C40 18.6545 46.9396 12 56.6086 12C62.2459 12 66.9318 14.3175 69.4233 18.7141L65.0943 21.5082C64.1827 20.0765 62.9164 18.9058 61.4188 18.1102C59.9213 17.3146 58.2436 16.9213 56.5491 16.9686C50.3826 16.9686 45.7562 21.3295 45.7562 28.0496C45.7562 34.8828 50.3886 39.1663 56.5551 39.1663C58.2479 39.216 59.9248 38.8257 61.4223 38.0333C62.9198 37.2408 64.1869 36.0734 65.1002 34.6445L69.4293 37.379C66.9377 41.7816 62.2519 44.1587 56.6146 44.1587C46.9455 44.1587 40 37.4386 40 28.0496Z" fill="#0066CC"/>
<path d="M105.604 12.6055L90.3573 47.2604C87.5386 53.9149 83.9231 56 79.1184 56C76.0916 56 73.0054 54.9932 71.049 53.0868L73.4811 48.8093C74.9842 50.2924 77.0087 51.1246 79.1184 51.1268C81.8419 51.1268 83.5664 49.8817 85.1065 46.2536L86.1174 44.0552L72.2323 12.6114H78.1788L89.1561 37.8117L100.014 12.6114L105.604 12.6055Z" fill="#0066CC"/>
<path d="M160.752 25.9805V44.0854H155.056V26.6358C155.056 20.4519 152.082 17.4196 146.927 17.4196C141.23 17.4196 137.496 21.0477 137.496 27.881V44.0854H131.799V26.6358C131.799 20.4519 128.826 17.4196 123.67 17.4196C117.973 17.4196 114.239 21.0477 114.239 27.881V44.0854H108.542V12.6059H114.001V17.2766C116.255 14.0655 120.114 12.2842 124.859 12.2842C129.605 12.2842 133.696 14.1846 135.777 18.1106C138.156 14.5361 142.538 12.2842 147.878 12.2842C155.555 12.308 160.752 16.6808 160.752 25.9805Z" fill="#0066CC"/>
<path d="M199.077 28.3578C199.077 37.9852 192.369 44.4431 183.176 44.4431C178.549 44.4431 174.512 42.6558 171.961 39.0813V44.0857H166.502V0H172.204V17.3543C174.815 13.9644 178.746 12.3023 183.182 12.3023C192.369 12.3082 199.077 18.7304 199.077 28.3578ZM193.32 28.3578C193.32 21.6377 188.754 17.3006 182.7 17.3006C176.646 17.3006 172.139 21.6377 172.139 28.3578C172.139 35.0779 176.706 39.4745 182.7 39.4745C188.694 39.4745 193.32 35.0719 193.32 28.3578Z" fill="#0066CC"/>
<path d="M233.9 12.6055V44.085H228.501V39.319C226.187 42.5837 222.275 44.4305 217.797 44.4305C209.668 44.4305 204.275 39.9684 204.275 30.6985V12.6055H209.965V30.0789C209.965 36.2628 213.052 39.3547 218.451 39.3547C224.398 39.3547 228.18 35.667 228.18 28.8933V12.6055H233.9Z" fill="#0066CC"/>
<path d="M238.407 40.7791L240.786 36.2633C243.456 38.1637 247.725 39.534 251.823 39.534C257.103 39.534 259.297 37.9254 259.297 35.2505C259.297 28.1789 239.424 34.3033 239.424 21.7567C239.424 16.115 244.467 12.3081 252.536 12.3081C256.627 12.3081 261.254 13.3805 263.983 15.1618L261.545 19.6597C258.829 17.9679 255.68 17.1066 252.483 17.1814C247.493 17.1814 245.061 19.0222 245.061 21.5184C245.061 28.9534 265 22.8887 265 35.1314C265 40.8387 259.779 44.4668 251.412 44.4668C246.179 44.4668 241.018 42.8583 238.407 40.7791Z" fill="#0066CC"/>
<path d="M16.0004 32.5425C18.5091 32.5425 20.5429 30.5088 20.5429 28C20.5429 25.4913 18.5091 23.4575 16.0004 23.4575C13.4916 23.4575 11.4579 25.4913 11.4579 28C11.4579 30.5088 13.4916 32.5425 16.0004 32.5425Z" fill="#72A5D8"/>
<path d="M27.5153 32.5425C29.9921 32.5425 31.9999 30.5088 31.9999 28C31.9999 25.4913 29.9921 23.4575 27.5153 23.4575C25.0385 23.4575 23.0306 25.4913 23.0306 28C23.0306 30.5088 25.0385 32.5425 27.5153 32.5425Z" fill="#3985D2"/>
<path d="M16.0004 20.9693C18.5091 20.9693 20.5429 18.9614 20.5429 16.4846C20.5429 14.0078 18.5091 12 16.0004 12C13.4916 12 11.4579 14.0078 11.4579 16.4846C11.4579 18.9614 13.4916 20.9693 16.0004 20.9693Z" fill="#3985D2"/>
<path d="M27.5153 20.9693C29.9921 20.9693 31.9999 18.9614 31.9999 16.4846C31.9999 14.0078 29.9921 12 27.5153 12C25.0385 12 23.0306 14.0078 23.0306 16.4846C23.0306 18.9614 25.0385 20.9693 27.5153 20.9693Z" fill="#0066CC"/>
<path d="M4.48463 20.9693C6.96143 20.9693 8.96926 18.9614 8.96926 16.4846C8.96926 14.0078 6.96143 12 4.48463 12C2.00784 12 0 14.0078 0 16.4846C0 18.9614 2.00784 20.9693 4.48463 20.9693Z" fill="#72A5D8"/>
<path d="M27.5153 44C29.9921 44 31.9999 41.9922 31.9999 39.5154C31.9999 37.0386 29.9921 35.0308 27.5153 35.0308C25.0385 35.0308 23.0306 37.0386 23.0306 39.5154C23.0306 41.9922 25.0385 44 27.5153 44Z" fill="#72A5D8"/>
</svg>
