<svg width="20" height="20" viewBox="0 0 20 20" fill="none" xmlns="http://www.w3.org/2000/svg">
<path d="M4.79167 17.0833C4.21549 17.0833 3.75 16.6178 3.75 16.0417C3.75 15.4655 4.21549 15 4.79167 15H15.2083C15.7845 15 16.25 15.4655 16.25 16.0417C16.25 16.6178 15.7845 17.0833 15.2083 17.0833H4.79167ZM10.7357 12.6107C10.3288 13.0176 9.66797 13.0176 9.26107 12.6107L5.0944 8.44401C4.6875 8.03711 4.6875 7.3763 5.0944 6.9694C5.5013 6.5625 6.16211 6.5625 6.56901 6.9694L8.95833 9.35872V3.54167C8.95833 2.96549 9.42383 2.5 10 2.5C10.5762 2.5 11.0417 2.96549 11.0417 3.54167V9.35872L13.431 6.9694C13.8379 6.5625 14.4987 6.5625 14.9056 6.9694C15.3125 7.3763 15.3125 8.03711 14.9056 8.44401L10.7389 12.6107H10.7357Z" fill="#1B98FF"/>
</svg>
